<svg width="32" height="32" viewBox="0 0 32 32" fill="none" xmlns="http://www.w3.org/2000/svg">
<path d="M10.6668 10.6666H10.2814C8.99732 10.6666 8.35554 10.6666 7.8348 10.9002C7.37577 11.1061 6.98471 11.4378 6.70612 11.8567C6.39008 12.3319 6.28384 12.9651 6.07273 14.2317L4.82829 21.6984L4.82779 21.7011C4.54321 23.4086 4.40084 24.2628 4.6481 24.9285C4.86519 25.513 5.28093 26.0028 5.82178 26.3131C6.43808 26.6666 7.30384 26.6666 9.03662 26.6666H22.9634C24.6961 26.6666 25.5633 26.6666 26.1796 26.3131C26.7205 26.0028 27.1352 25.513 27.3523 24.9285C27.5995 24.2631 27.4572 23.4093 27.1728 21.7031L27.1717 21.6984L25.9272 14.2317C25.7161 12.9651 25.6105 12.3319 25.2944 11.8567C25.0158 11.4378 24.6245 11.1061 24.1655 10.9002C23.6447 10.6666 23.0034 10.6666 21.7193 10.6666H21.3335M10.6668 10.6666H21.3335M10.6668 10.6666C10.6668 7.72107 13.0546 5.33325 16.0002 5.33325C18.9457 5.33325 21.3335 7.72107 21.3335 10.6666" stroke="#897D79" stroke-width="2.5" stroke-linecap="round" stroke-linejoin="round"/>
</svg>
